<?xml version="1.0" encoding="UTF-8"?>
<svg xmlns="http://www.w3.org/2000/svg" width="100%" viewBox="0 0 287.63 92.03">
  <path
    d="M172.96,36.63h22.79c2.66-5.33,4.93-11.47,8.51-16.73,11.65-17.13,33.36-23.99,52.53-17.17,19.46,6.92,31.99,25.91,30.74,46.59-1.2,19.86-16.65,37.55-36.49,41.75-25.18,5.34-50.41-12.04-54.67-37.45-.52-3.12,.76-7.22-3.95-8.78-5.81-1.92-11.62-2.35-16.85,.89-1.57,.97-2.07,4.25-2.4,6.56-2.68,18.61-16.52,34.03-34.66,38.39-28.51,6.86-55.53-14.12-56.57-44.17-.14-3.95-1.13-5.13-5.07-5.11-26.33,.15-15.7-.13-42.03,0-13.12,.06-25.5,2.04-27.1,15.15-.35,2.85-1.48,5.8-4.34,5.49C-.15,61.64-.09,58.67,.04,55.9c.71-15.2,11.75-22.81,34.2-22.16,26.99-.14,16.82,.01,43.81,.19,3.98,.03,5.75-1.17,7.22-4.91C92.61,10.31,110.96-1.11,131.03,.09c18.59,1.11,35.56,15.1,40.9,33.7,.31,1.09,.77,2.14,1.03,2.84ZM127.78,7.83c-21.13,.04-38.63,17.5-38.51,38.42,.12,20.76,17.53,38.05,38.4,38.11,21.11,.06,38.23-16.95,38.22-37.98-.01-21.62-16.78-38.59-38.1-38.55Zm113.9-.02c-21.29,0-38.08,16.98-38.09,38.54-.01,20.83,16.91,37.9,37.68,38,21.37,.11,38.59-16.85,38.71-38.1,.11-21.23-17.04-38.44-38.3-38.44Z" />
  <path
    d="M207.51,27.55c-7.09,0-14.19,.02-21.28,.05-6.25,.03-11.49,1.89-15.42,5.27l-2.96-7.1c4.95-3.6,11-5.78,17.42-5.81,9.24-.05,18.49-.08,27.73-.09l-5.48,7.68Z" />
</svg>